<svg width="200" height="40" viewBox="0 0 200 40" fill="none" xmlns="http://www.w3.org/2000/svg">
<path d="M51.1119 36.3636V18.6473H45.0574V14.8509H51.1119V10.1382C51.1119 8.82909 51.5068 7.78182 52.2965 6.99636C53.0862 6.21091 54.1391 5.81818 55.4553 5.81818H61.0272V9.61454H56.9031C56.0549 9.61454 55.6308 10.0509 55.6308 10.9236V14.8509H61.8608V18.6473H55.6308V36.3636H51.1119Z" fill="black"/>
<path d="M72.8142 36.9745C71.2641 36.9745 69.8748 36.7127 68.6463 36.1891C67.4471 35.6655 66.4819 34.8945 65.7507 33.8764C65.0487 32.8582 64.6978 31.6218 64.6978 30.1673C64.6978 28.6836 65.0487 27.4618 65.7507 26.5018C66.4819 25.5127 67.4617 24.7709 68.6902 24.2764C69.9479 23.7818 71.3664 23.5345 72.9459 23.5345H79.5268V22.1382C79.5268 20.8873 79.1466 19.8836 78.3861 19.1273C77.6256 18.3709 76.4557 17.9927 74.8763 17.9927C73.3261 17.9927 72.1415 18.3564 71.3226 19.0836C70.5036 19.8109 69.9625 20.7564 69.6993 21.92L65.4875 20.5673C65.8385 19.4036 66.3942 18.3564 67.1546 17.4255C67.9443 16.4655 68.9827 15.6945 70.2696 15.1127C71.5565 14.5309 73.1067 14.24 74.9201 14.24C77.728 14.24 79.9363 14.9527 81.5449 16.3782C83.1536 17.8036 83.9579 19.8255 83.9579 22.4436V31.3018C83.9579 32.1745 84.3674 32.6109 85.1864 32.6109H87.029V36.3636H83.6508C82.6271 36.3636 81.7936 36.1018 81.1501 35.5782C80.5066 35.0545 80.1849 34.3418 80.1849 33.44V33.3091H79.5268C79.2928 33.7455 78.9418 34.2545 78.4738 34.8364C78.0059 35.4182 77.3185 35.9273 76.4118 36.3636C75.5051 36.7709 74.3059 36.9745 72.8142 36.9745ZM73.4723 33.2655C75.2857 33.2655 76.7482 32.7564 77.8596 31.7382C78.9711 30.6909 79.5268 29.2655 79.5268 27.4618V27.0255H73.2091C72.0099 27.0255 71.0447 27.2873 70.3135 27.8109C69.5823 28.3055 69.2167 29.0473 69.2167 30.0364C69.2167 31.0255 69.5969 31.8109 70.3574 32.3927C71.1178 32.9745 72.1561 33.2655 73.4723 33.2655Z" fill="black"/>
<path d="M100.114 36.9745C97.3644 36.9745 95.083 36.3636 93.2696 35.1418C91.4562 33.92 90.3448 32.0727 89.9353 29.6L94.1471 28.5964C94.3811 29.7891 94.7759 30.7345 95.3316 31.4327C95.8874 32.1309 96.5747 32.6255 97.3937 32.9164C98.2419 33.2073 99.1486 33.3527 100.114 33.3527C101.547 33.3527 102.644 33.0764 103.404 32.5236C104.194 31.9709 104.589 31.2582 104.589 30.3855C104.589 29.5127 104.223 28.8727 103.492 28.4655C102.761 28.0582 101.679 27.7236 100.245 27.4618L98.7537 27.2C97.2913 26.9382 95.9605 26.56 94.7613 26.0655C93.5621 25.5709 92.6115 24.8873 91.9096 24.0145C91.2076 23.1418 90.8566 22.0218 90.8566 20.6545C90.8566 18.6182 91.6171 17.0473 93.138 15.9418C94.6589 14.8073 96.6771 14.24 99.1925 14.24C101.62 14.24 103.609 14.7927 105.159 15.8982C106.739 16.9745 107.762 18.4436 108.23 20.3055L104.018 21.4836C103.755 20.1745 103.2 19.2582 102.351 18.7345C101.503 18.1818 100.45 17.9055 99.1925 17.9055C97.964 17.9055 96.9988 18.1382 96.2968 18.6036C95.5949 19.04 95.2439 19.6655 95.2439 20.48C95.2439 21.3527 95.5803 21.9927 96.253 22.4C96.955 22.8073 97.8909 23.1127 99.0608 23.3164L100.596 23.5782C102.147 23.84 103.565 24.2036 104.852 24.6691C106.139 25.1345 107.148 25.8036 107.879 26.6764C108.64 27.5491 109.02 28.7127 109.02 30.1673C109.02 32.32 108.216 33.9927 106.607 35.1855C104.998 36.3782 102.834 36.9745 100.114 36.9745Z" fill="black"/>
<path d="M114.302 36.3636V5.81818H118.821V17.9055H119.523C119.815 17.3527 120.225 16.8145 120.751 16.2909C121.307 15.7673 122.023 15.3455 122.901 15.0255C123.808 14.6764 124.948 14.5018 126.323 14.5018C127.961 14.5018 129.409 14.8655 130.666 15.5927C131.953 16.32 132.962 17.3527 133.694 18.6909C134.425 20 134.79 21.5855 134.79 23.4473V36.3636H130.272V23.7964C130.272 21.9345 129.804 20.5673 128.868 19.6945C127.932 18.7927 126.645 18.3418 125.007 18.3418C123.135 18.3418 121.629 18.9527 120.488 20.1745C119.377 21.3964 118.821 23.1709 118.821 25.4982V36.3636H114.302Z" fill="black"/>
<path d="M141.294 36.3636V14.8509H145.813V36.3636H141.294ZM143.575 11.9273C142.698 11.9273 141.952 11.6509 141.338 11.0982C140.753 10.5164 140.46 9.77454 140.46 8.87273C140.46 7.97091 140.753 7.24364 141.338 6.69091C141.952 6.10909 142.698 5.81818 143.575 5.81818C144.482 5.81818 145.228 6.10909 145.813 6.69091C146.398 7.24364 146.69 7.97091 146.69 8.87273C146.69 9.77454 146.398 10.5164 145.813 11.0982C145.228 11.6509 144.482 11.9273 143.575 11.9273Z" fill="black"/>
<path d="M162.654 36.9745C160.49 36.9745 158.559 36.5382 156.863 35.6655C155.196 34.7636 153.879 33.4836 152.914 31.8255C151.949 30.1673 151.466 28.2036 151.466 25.9345V25.28C151.466 23.0109 151.949 21.0618 152.914 19.4327C153.879 17.7745 155.196 16.4945 156.863 15.5927C158.559 14.6909 160.49 14.24 162.654 14.24C164.818 14.24 166.749 14.6909 168.445 15.5927C170.142 16.4945 171.472 17.7745 172.438 19.4327C173.403 21.0618 173.885 23.0109 173.885 25.28V25.9345C173.885 28.2036 173.403 30.1673 172.438 31.8255C171.472 33.4836 170.142 34.7636 168.445 35.6655C166.749 36.5382 164.818 36.9745 162.654 36.9745ZM162.654 32.96C164.643 32.96 166.251 32.3345 167.48 31.0836C168.738 29.8036 169.366 28.0436 169.366 25.8036V25.4109C169.366 23.1709 168.752 21.4255 167.524 20.1745C166.295 18.8945 164.672 18.2545 162.654 18.2545C160.694 18.2545 159.086 18.8945 157.828 20.1745C156.599 21.4255 155.985 23.1709 155.985 25.4109V25.8036C155.985 28.0436 156.599 29.8036 157.828 31.0836C159.086 32.3345 160.694 32.96 162.654 32.96Z" fill="black"/>
<path d="M179.511 36.3636V14.8509H183.943V18.08H184.645C185.054 17.2073 185.785 16.3927 186.838 15.6364C187.891 14.88 189.456 14.5018 191.533 14.5018C193.17 14.5018 194.618 14.8655 195.876 15.5927C197.163 16.32 198.172 17.3527 198.903 18.6909C199.634 20 200 21.5855 200 23.4473V36.3636H195.481V23.7964C195.481 21.9345 195.013 20.5673 194.077 19.6945C193.141 18.7927 191.854 18.3418 190.216 18.3418C188.344 18.3418 186.838 18.9527 185.697 20.1745C184.586 21.3964 184.03 23.1709 184.03 25.4982V36.3636H179.511Z" fill="black"/>
<path d="M0 40C0 31.9668 6.54752 25.4545 14.6243 25.4545V40H0Z" fill="black"/>
<path d="M0 0H14.6243V14.5455C6.54752 14.5455 0 8.03323 0 0Z" fill="black"/>
<path d="M18.2804 10.9091C18.2804 4.88417 23.191 0 29.2486 0V40C23.191 40 18.2804 35.1158 18.2804 29.0909V10.9091Z" fill="black"/>
</svg>
